<svg width="62" height="62" viewBox="0 0 62 62" fill="none" xmlns="http://www.w3.org/2000/svg">
<rect x="0.00292969" y="0.185547" width="61.6299" height="61.6299" rx="16" fill="url(#paint0_linear_993_979)"/>
<path d="M13.1981 32.9745C13.1981 32.2175 13.077 31.4653 12.8392 30.7466L10.1812 22.7128C9.85682 21.7323 10.5869 20.7217 11.6197 20.7217C12.2931 20.7217 12.8856 21.166 13.0743 21.8124L14.821 27.7978C14.8256 27.8135 14.84 27.8243 14.8563 27.8243C14.8727 27.8243 14.8871 27.8135 14.8917 27.7978L16.6656 21.7192C16.8381 21.1281 17.3801 20.7217 17.9958 20.7217C18.9404 20.7217 19.6081 21.6459 19.3114 22.5426L16.5972 30.7466C16.3594 31.4653 16.2382 32.2175 16.2382 32.9745V38.5474C16.2382 39.3868 15.5576 40.0674 14.7182 40.0674C13.8787 40.0674 13.1981 39.3868 13.1981 38.5474V32.9745Z" fill="white"/>
<path d="M25.08 40.3438C23.606 40.3438 22.4914 39.9292 21.7359 39.1001C20.9805 38.2526 20.6028 37.0458 20.6028 35.4797C20.6028 34.8692 21.0978 34.3742 21.7083 34.3742H22.1505C22.8831 34.3742 23.4771 34.9681 23.4771 35.7008C23.4771 36.9536 24.0022 37.5801 25.0524 37.5801C25.5682 37.5801 25.9552 37.4327 26.2131 37.1379C26.4895 36.8247 26.6276 36.3272 26.6276 35.6455C26.6276 34.8348 26.4434 34.1255 26.0749 33.5175C25.7064 32.891 25.0247 32.1449 24.0298 31.2789C22.7769 30.1734 21.9018 29.1785 21.4043 28.2941C20.9068 27.3913 20.6581 26.378 20.6581 25.2541C20.6581 23.7249 21.045 22.5457 21.8189 21.7166C22.5927 20.8691 23.7166 20.4453 25.1905 20.4453C26.6461 20.4453 27.7423 20.8691 28.4793 21.7166C29.2347 22.5457 29.6124 23.7433 29.6124 25.3094C29.6124 25.752 29.2536 26.1108 28.8109 26.1108H27.7331C27.1836 26.1108 26.7382 25.6654 26.7382 25.1159C26.7382 24.4526 26.6092 23.9736 26.3513 23.6788C26.0933 23.3656 25.7156 23.209 25.2182 23.209C24.2048 23.209 23.6982 23.8262 23.6982 25.0606C23.6982 25.7608 23.8824 26.4148 24.2509 27.0229C24.6378 27.6309 25.3287 28.3678 26.3236 29.2338C27.5949 30.3393 28.4701 31.3434 28.9491 32.2462C29.4282 33.149 29.6677 34.2084 29.6677 35.4244C29.6677 37.0089 29.2716 38.2249 28.4793 39.0725C27.7055 39.92 26.5724 40.3438 25.08 40.3438Z" fill="white"/>
<path d="M33.6243 22.7538C33.8151 21.5822 34.8271 20.7217 36.0142 20.7217C37.2013 20.7217 38.2133 21.5822 38.4041 22.7538L40.9424 38.3397C41.0898 39.2453 40.3908 40.0674 39.4733 40.0674H38.4103C38.2802 40.0674 38.1699 39.9718 38.1514 39.8431L37.6383 36.2769C37.6376 36.2724 37.6309 36.2729 37.6309 36.2775C37.6309 36.2795 37.6293 36.2812 37.6273 36.2812H35.7782C34.8584 36.2812 34.0778 36.956 33.945 37.8662L33.7962 38.8855C33.6971 39.5642 33.1151 40.0674 32.4292 40.0674C31.5777 40.0674 30.9289 39.3044 31.0658 38.4639L33.6243 22.7538ZM35.9017 33.6557C36.6251 33.6557 37.181 33.0154 37.0796 32.2992L35.9213 24.1207C35.9191 24.105 35.9057 24.0934 35.8899 24.0934C35.874 24.0934 35.8606 24.1051 35.8584 24.1208L34.7233 32.3026C34.6241 33.0177 35.1797 33.6557 35.9017 33.6557Z" fill="white"/>
<path d="M47.2047 40.3438C45.7492 40.3438 44.6345 39.9292 43.8607 39.1001C43.1052 38.271 42.7275 37.101 42.7275 35.5902V25.1988C42.7275 23.688 43.1052 22.5181 43.8607 21.689C44.6345 20.8599 45.7492 20.4453 47.2047 20.4453C48.6602 20.4453 49.7657 20.8599 50.5211 21.689C51.2949 22.5181 51.6818 23.688 51.6818 25.1988V25.8068C51.6818 26.6005 51.0384 27.2439 50.2447 27.2439C49.451 27.2439 48.8076 26.6005 48.8076 25.8068V25.0054C48.8076 23.8078 48.301 23.209 47.2876 23.209C46.2743 23.209 45.7676 23.8078 45.7676 25.0054V35.8113C45.7676 36.9905 46.2743 37.5801 47.2876 37.5801C48.301 37.5801 48.8076 36.9905 48.8076 35.8113V34.2913C48.8076 33.4976 49.451 32.8542 50.2447 32.8542C51.0384 32.8542 51.6818 33.4976 51.6818 34.2913V35.5902C51.6818 37.101 51.2949 38.271 50.5211 39.1001C49.7657 39.9292 48.6602 40.3438 47.2047 40.3438Z" fill="white"/>
<path fill-rule="evenodd" clip-rule="evenodd" d="M25.1902 20.7905C23.784 20.7905 22.7646 21.1926 22.0736 21.9493L22.0724 21.9507L22.0711 21.9521C21.3752 22.6976 21.0032 23.7811 21.0032 25.2539C21.0032 26.3243 21.2395 27.279 21.7058 28.1259C22.176 28.9612 23.0182 29.9255 24.2571 31.0188C25.2598 31.8916 25.9742 32.666 26.3712 33.3402C26.776 34.0089 26.9728 34.7813 26.9728 35.6453C26.9728 36.361 26.8299 36.96 26.4722 37.3657C26.1295 37.757 25.6337 37.9253 25.052 37.9253C24.4561 37.9253 23.9518 37.7447 23.6058 37.3319C23.2696 36.9309 23.1313 36.3668 23.1313 35.7005V34.7194H20.948V35.4794C20.948 36.992 21.3123 38.1048 21.9921 38.8685C22.6632 39.6041 23.6715 39.998 25.0796 39.998C26.5058 39.998 27.5337 39.5951 28.2238 38.8393L28.2252 38.8378L28.2266 38.8363C28.94 38.0731 29.3219 36.9536 29.3219 35.4242C29.3219 34.2539 29.0916 33.2521 28.6436 32.4079C28.1932 31.559 27.3539 30.5875 26.0966 29.4942L26.0965 29.4941C25.0936 28.6213 24.3729 27.8583 23.9591 27.2081L23.9571 27.2049L23.9551 27.2017C23.5544 26.5405 23.3523 25.8247 23.3523 25.0604C23.3523 24.4047 23.4855 23.8487 23.8108 23.4525C24.1468 23.0432 24.6379 22.8633 25.2178 22.8633C25.7911 22.8633 26.2762 23.047 26.6144 23.455C26.952 23.8439 27.0833 24.4245 27.0833 25.1157V25.7651H29.2666V25.3091C29.2666 23.7949 28.9015 22.6931 28.2236 21.949L28.2209 21.9461L28.2183 21.943C27.5651 21.1919 26.5773 20.7905 25.1902 20.7905ZM21.5647 21.482C22.4213 20.5447 23.6492 20.0996 25.1902 20.0996C26.7125 20.0996 27.9163 20.5448 28.737 21.4867C29.568 22.4006 29.9575 23.6929 29.9575 25.3091V26.4561H26.3924V25.1157C26.3924 24.4826 26.2666 24.1068 26.0909 23.9061L26.0875 23.9022L26.0843 23.8982C25.9067 23.6825 25.6377 23.5542 25.2178 23.5542C24.7844 23.5542 24.5155 23.6829 24.3448 23.8908C24.1634 24.1118 24.0433 24.4817 24.0433 25.0604C24.0433 25.6951 24.209 26.2864 24.544 26.8403C24.9045 27.4055 25.5649 28.1155 26.55 28.9729C27.8352 30.0905 28.7463 31.1273 29.2539 32.084C29.764 33.0453 30.0128 34.1624 30.0128 35.4242C30.0128 37.063 29.6028 38.375 28.7326 39.3068C27.8751 40.2449 26.6373 40.689 25.0796 40.689C23.5407 40.689 22.32 40.2542 21.4802 39.3325L21.479 39.3311L21.4777 39.3297C20.6476 38.3984 20.257 37.098 20.257 35.4794V34.0285H23.8222V35.7005C23.8222 36.2871 23.9464 36.6627 24.1353 36.8881C24.3144 37.1018 24.5977 37.2344 25.052 37.2344C25.5018 37.2344 25.7796 37.108 25.9528 36.9102L25.9532 36.9096L25.9537 36.9091C26.1485 36.6884 26.2818 36.2927 26.2818 35.6453C26.2818 34.8887 26.1105 34.2431 25.7791 33.6963L25.778 33.6943L25.7768 33.6924C25.4367 33.1143 24.7884 32.3972 23.8026 31.5392L23.8018 31.5385L23.8009 31.5377C22.5352 30.421 21.6276 29.3962 21.1029 28.4633L21.1021 28.4619L21.1014 28.4606C20.5733 27.5022 20.3123 26.4307 20.3123 25.2539C20.3123 23.669 20.7138 22.3946 21.5647 21.482ZM44.1143 21.9229C43.4353 22.669 43.0727 23.7445 43.0727 25.1986V35.59C43.0727 37.0441 43.4354 38.1196 44.1143 38.8657C44.8055 39.6052 45.8168 39.998 47.2043 39.998C48.5933 39.998 49.5936 39.6046 50.2654 38.8672L50.2668 38.8657L50.2682 38.8641C50.9647 38.1179 51.336 37.043 51.336 35.59V33.1994H49.1527V35.8111C49.1527 36.4422 49.0183 36.98 48.6893 37.3628C48.3517 37.7557 47.862 37.9253 47.2873 37.9253C46.7125 37.9253 46.2228 37.7557 45.8852 37.3628C45.5562 36.98 45.4218 36.4422 45.4218 35.8111V25.0051C45.4218 24.3659 45.5558 23.822 45.8835 23.4347C46.2206 23.0363 46.7108 22.8633 47.2873 22.8633C47.8637 22.8633 48.3539 23.0363 48.691 23.4347C49.0187 23.822 49.1527 24.3659 49.1527 25.0051V26.8982H51.336V25.1986C51.336 23.7456 50.9647 22.6707 50.2682 21.9244L50.2668 21.9229L50.2654 21.9214C49.5936 21.184 48.5933 20.7905 47.2043 20.7905C45.8168 20.7905 44.8054 21.1833 44.1143 21.9229ZM43.6078 21.453C44.4642 20.5354 45.6818 20.0996 47.2043 20.0996C48.7256 20.0996 49.9358 20.5347 50.7747 21.4545C51.6249 22.3663 52.0269 23.6309 52.0269 25.1986V27.5892H48.4618V25.0051C48.4618 24.4468 48.3425 24.0925 48.1635 23.881C47.994 23.6806 47.7242 23.5542 47.2873 23.5542C46.8504 23.5542 46.5805 23.6806 46.411 23.881C46.232 24.0925 46.1127 24.4468 46.1127 25.0051V35.8111C46.1127 36.3592 46.2316 36.7057 46.4092 36.9125C46.5783 37.1092 46.8486 37.2344 47.2873 37.2344C47.7259 37.2344 47.9962 37.1092 48.1653 36.9125C48.3429 36.7057 48.4618 36.3592 48.4618 35.8111V32.5085H52.0269V35.59C52.0269 37.1577 51.6249 38.4222 50.7748 39.334C49.9358 40.2538 48.7256 40.689 47.2043 40.689C45.6818 40.689 44.4642 40.2532 43.6078 39.3356L43.6063 39.3341L43.6049 39.3325C42.774 38.4205 42.3817 37.1566 42.3817 35.59V25.1986C42.3817 23.632 42.774 22.3681 43.6049 21.4561L43.6063 21.4545L43.6078 21.453ZM9.04395 20.376H13.0147L14.856 26.6856L16.6973 20.376H20.3917L16.5833 31.8871V40.4126H12.8523V31.8871L9.04395 20.376ZM10.0003 21.0669L13.5433 31.7757V39.7217H15.8924V31.7757L19.4354 21.0669H17.2154L15.1427 28.1695H14.5693L12.4966 21.0669H10.0003ZM33.6612 20.376H38.3665L41.6296 40.4126H37.884L37.3392 36.6264H34.4747L33.922 40.4126H30.3981L33.6612 20.376ZM37.6306 36.2009V35.9355H33.8773L33.3246 39.7217H31.2106L34.2487 21.0669H37.779L40.8171 39.7217H38.4826L37.9725 36.1764L37.6306 36.2009ZM35.561 23.7477H36.2171L37.6691 34.0009H34.1386L35.561 23.7477ZM35.8927 26.3846L34.932 33.31H36.8735L35.8927 26.3846Z" fill="white"/>
<defs>
<linearGradient id="paint0_linear_993_979" x1="19.5559" y1="61.8154" x2="19.5559" y2="0.185547" gradientUnits="userSpaceOnUse">
<stop stop-color="#7840ED"/>
<stop offset="1" stop-color="#A35BFF"/>
</linearGradient>
</defs>
</svg>
